<svg xmlns="http://www.w3.org/2000/svg" viewBox="0 0 64 64">
  <defs>
    <linearGradient id="brand" x1="0" y1="0" x2="1" y2="1">
      <stop offset="0%" stop-color="#26314d"/>
      <stop offset="100%" stop-color="#1f2940"/>
    </linearGradient>
  </defs>
  <rect x="4" y="4" width="56" height="56" rx="14" fill="url(#brand)"/>
  <path d="M18 39c3 4 8 7 14 7 7 0 12-3 12-9 0-5-4-7-10-8l-5-1c-2-1-3-2-3-4 0-3 2-4 6-4 4 0 7 1 10 4l4-5c-4-4-9-6-14-6-9 0-14 4-14 11 0 5 3 8 9 9l6 1c2 0 3 1 3 3 0 3-3 4-7 4-4 0-8-2-11-5z" fill="#ffffff"/>
</svg>

